<?xml version="1.0" encoding="UTF-8" standalone="no"?>
<svg
   xmlns:dc="http://purl.org/dc/elements/1.1/"
   xmlns:cc="http://creativecommons.org/ns#"
   xmlns:rdf="http://www.w3.org/1999/02/22-rdf-syntax-ns#"
   xmlns:svg="http://www.w3.org/2000/svg"
   xmlns="http://www.w3.org/2000/svg"
   xmlns:sodipodi="http://sodipodi.sourceforge.net/DTD/sodipodi-0.dtd"
   xmlns:inkscape="http://www.inkscape.org/namespaces/inkscape"
   enable-background="new 0 0 64 64"
   height="64px"
   version="1.1"
   viewBox="0 0 64 64"
   width="64px"
   xml:space="preserve"
   id="svg936"
   sodipodi:docname="if_cert.svg"
   inkscape:version="1.0.1 (3bc2e813f5, 2020-09-07)"><metadata
     id="metadata942"><rdf:RDF><cc:Work
         rdf:about=""><dc:format>image/svg+xml</dc:format><dc:type
           rdf:resource="http://purl.org/dc/dcmitype/StillImage" /><dc:title></dc:title></cc:Work></rdf:RDF></metadata><defs
     id="defs940" /><sodipodi:namedview
     pagecolor="#ffffff"
     bordercolor="#666666"
     borderopacity="1"
     objecttolerance="10"
     gridtolerance="10"
     guidetolerance="10"
     inkscape:pageopacity="0"
     inkscape:pageshadow="2"
     inkscape:window-width="2560"
     inkscape:window-height="1377"
     id="namedview938"
     showgrid="false"
     inkscape:zoom="18.546875"
     inkscape:cx="32.628408"
     inkscape:cy="32"
     inkscape:window-x="1672"
     inkscape:window-y="-8"
     inkscape:window-maximized="1"
     inkscape:current-layer="svg936" /><g
     id="g914"><circle
       cx="32"
       cy="32"
       fill="#e0e0d1"
       r="32"
       id="circle912" /></g><g
     id="Layer_2" /><rect
     class="cls-1"
     height="27.104673"
     rx="2.5410631"
     ry="2.5410631"
     width="40.657009"
     x="12.626899"
     y="17.629166"
     id="rect2197"
     style="fill:#f2f2f2;stroke-width:0.42351" /><path
     class="cls-2"
     d="M 12.800539,42.366414 V 20.343867 a 2.5410631,2.5410631 0 0 1 2.541063,-2.541062 h 35.574882 a 2.5410631,2.5410631 0 0 1 1.694042,0.660676 2.5410631,2.5410631 0 0 0 -1.867681,-0.834316 H 15.167963 A 2.5410631,2.5410631 0 0 0 12.6269,20.170228 v 22.022546 a 2.5410631,2.5410631 0 0 0 0.847021,1.880387 2.5410631,2.5410631 0 0 1 -0.673382,-1.706747 z"
     id="path2199"
     style="fill:#f7f7f7;stroke-width:0.42351" /><path
     class="cls-3"
     d="m 42.861315,40.922243 a 0.61409024,0.61409024 0 0 1 0,-1.020661 c 0.724203,-0.482801 1.135008,-0.6395 1.033365,-1.147713 l -0.182109,-0.910547 a 0.61409024,0.61409024 0 0 1 0.724203,-0.732674 c 0.84702,0.17364 1.270531,0.351514 1.541578,-0.08047 l 0.529388,-0.766554 a 0.61409024,0.61409024 0 0 1 1.02066,0 c 0.482803,0.724203 0.639501,1.135008 1.147714,1.033366 0.698793,-0.139758 1.130773,-0.347279 1.465347,0 a 0.61409024,0.61409024 0 0 1 0.169403,0.554799 l -0.182109,0.910548 c -0.173639,0.84702 1.308648,0.84702 1.308648,1.655925 0,0.808905 -1.482287,0.800435 -1.308648,1.655926 l 0.182109,0.910548 a 0.61409024,0.61409024 0 0 1 -0.169403,0.554799 c -0.56327,0.563269 -1.613576,-0.482802 -2.117553,0.245636 L 47.51146,44.55596 a 0.61409024,0.61409024 0 0 1 -1.02066,0 l -0.512448,-0.770788 a 0.61409024,0.61409024 0 0 0 -0.631031,-0.262577 l -0.910547,0.18211 a 0.61409024,0.61409024 0 0 1 -0.724203,-0.724203 c 0.173639,-0.847021 0.351513,-1.270532 -0.08047,-1.541578 z"
     id="path2203"
     style="fill:#e6e6e6;stroke-width:0.42351" /><polygon
     class="cls-3"
     points="102.17,93.06 102.17,94.76 101.08,94.76 101.08,92.78 "
     id="polygon2205"
     style="fill:#e6e6e6"
     transform="matrix(0.4235105,0,0,0.4235105,5.8507321,4.0768287)" /><path
     class="cls-4"
     d="M 42.272635,29.462048 H 23.638172 a 0.84702101,0.84702101 0 0 1 0,-1.694041 h 18.634463 a 0.84702101,0.84702101 0 0 1 0,1.694041 z"
     id="path2207"
     style="fill:#4f5d73;stroke-width:0.42351;fill-opacity:1" /><path
     class="cls-4"
     d="m 37.43191,40.460616 h -8.89372 a 0.84702101,0.84702101 0 0 1 0,-1.694041 h 8.89372 a 0.84702101,0.84702101 0 0 1 0,1.694041 z"
     id="path2209"
     style="fill:#4f5d73;stroke-width:0.42351;fill-opacity:1" /><path
     class="cls-4"
     d="M 42.272635,34.96345 H 23.638172 a 0.84702117,0.84702117 0 0 1 0,-1.694042 h 18.634463 a 0.84702117,0.84702117 0 0 1 0,1.694042 z"
     id="path2211"
     style="fill:#4f5d73;stroke-width:0.42351;fill-opacity:1" /><path
     class="cls-5"
     d="M 48.011203,48.524256 C 47.164182,47.87205 46.808432,47.389249 46.384922,47.723821 l -1.02066,0.800435 a 0.49127219,0.49127219 0 0 1 -0.791965,-0.385394 v -5.22612 h 4.235105 v 5.20918 a 0.49127219,0.49127219 0 0 1 -0.796199,0.402334 z"
     id="path2213"
     style="fill:#c75c5c;stroke-width:0.42351;fill-opacity:1" /><path
     class="cls-7"
     d="m 42.547917,40.61308 a 0.61409024,0.61409024 0 0 1 0,-1.020661 c 0.724203,-0.482801 1.135008,-0.6395 1.033366,-1.147713 l -0.18211,-0.910548 a 0.61409024,0.61409024 0 0 1 0.724203,-0.724203 c 0.847021,0.17364 1.270531,0.351515 1.541578,-0.08047 l 0.512448,-0.77079 a 0.61409024,0.61409024 0 0 1 1.020661,0 c 0.482801,0.724203 0.6395,1.135009 1.147713,1.033366 l 0.910547,-0.182109 a 0.61409024,0.61409024 0 0 1 0.719968,0.724203 c -0.173639,0.847021 -0.351514,1.270532 0.08047,1.541578 l 0.770789,0.512447 a 0.61409024,0.61409024 0 0 1 0,1.020661 c -0.724203,0.482802 -1.135008,0.639501 -1.033366,1.147713 l 0.18211,0.910548 a 0.61409024,0.61409024 0 0 1 -0.724203,0.724203 l -0.910548,-0.18211 c -0.847021,-0.173638 -0.847021,1.308648 -1.655926,1.308648 A 0.61409024,0.61409024 0 0 1 46.17317,44.242561 l -0.512448,-0.779259 c -0.487038,-0.732673 -1.520403,0.330338 -2.117552,-0.245637 -0.59715,-0.575974 0.482801,-1.613574 -0.245637,-2.117552 z"
     id="path2217"
     style="fill:#c75c5c;stroke-width:0.42351;fill-opacity:1" /><circle
     class="cls-9"
     cx="46.685616"
     cy="40.100628"
     r="2.3674238"
     id="circle2221"
     style="fill:#ffce47;stroke-width:0.42351" /><path
     class="cls-10"
     d="m 48.278014,38.351534 c 1.998969,2.198019 -1.126538,5.353173 -3.337263,3.337263 a 2.3631886,2.3631886 0 1 0 3.337263,-3.337263 z"
     id="path2223"
     style="fill:#f47c27;stroke-width:0.42351" /><path
     class="cls-7"
     d="M 50.742845,17.629165 H 15.167963 A 2.5410631,2.5410631 0 0 0 12.6269,20.170228 v 2.871401 h 40.657008 v -2.871401 a 2.5410631,2.5410631 0 0 0 -2.541063,-2.541063 z"
     id="path2225"
     style="fill:#c75c5c;stroke-width:0.42351;fill-opacity:1" /></svg>
