<?xml version="1.0" encoding="UTF-8" standalone="no"?>
<svg
   xmlns:dc="http://purl.org/dc/elements/1.1/"
   xmlns:cc="http://creativecommons.org/ns#"
   xmlns:rdf="http://www.w3.org/1999/02/22-rdf-syntax-ns#"
   xmlns:svg="http://www.w3.org/2000/svg"
   xmlns="http://www.w3.org/2000/svg"
   xmlns:sodipodi="http://sodipodi.sourceforge.net/DTD/sodipodi-0.dtd"
   xmlns:inkscape="http://www.inkscape.org/namespaces/inkscape"
   enable-background="new 0 0 64 64"
   height="64px"
   version="1.1"
   viewBox="0 0 64 64"
   width="64px"
   xml:space="preserve"
   id="svg40"
   sodipodi:docname="if_creditcard.svg"
   inkscape:version="1.0.1 (3bc2e813f5, 2020-09-07)"><metadata
     id="metadata46"><rdf:RDF><cc:Work
         rdf:about=""><dc:format>image/svg+xml</dc:format><dc:type
           rdf:resource="http://purl.org/dc/dcmitype/StillImage" /></cc:Work></rdf:RDF></metadata><defs
     id="defs44" /><sodipodi:namedview
     pagecolor="#ffffff"
     bordercolor="#666666"
     borderopacity="1"
     objecttolerance="10"
     gridtolerance="10"
     guidetolerance="10"
     inkscape:pageopacity="0"
     inkscape:pageshadow="2"
     inkscape:window-width="1680"
     inkscape:window-height="987"
     id="namedview42"
     showgrid="false"
     inkscape:zoom="13.4375"
     inkscape:cx="17.674419"
     inkscape:cy="39.053983"
     inkscape:window-x="-8"
     inkscape:window-y="-8"
     inkscape:window-maximized="1"
     inkscape:current-layer="Layer_1" /><g
     id="Layer_1"><g
       id="g12"
       style="fill:#77b3d4;fill-opacity:1"><circle
         cx="32"
         cy="32"
         fill="#77B3D4"
         r="32"
         id="circle10"
         style="fill:#e0e0d1;fill-opacity:1" /></g><g
       opacity="0.2"
       id="g16"><path
         d="M52,45c0,2.209-1.791,4-4,4H16c-2.209,0-4-1.791-4-4V25c0-2.209,1.791-4,4-4h32c2.209,0,4,1.791,4,4V45z"
         fill="#231F20"
         id="path14" /></g><g
       id="g20"><path
         d="M52,43c0,2.209-1.791,4-4,4H16c-2.209,0-4-1.791-4-4V23c0-2.209,1.791-4,4-4h32c2.209,0,4,1.791,4,4V43z"
         fill="#FFFFFF"
         id="path18" /></g><g
       id="g24"
       style="fill:#4f5d73;fill-opacity:1"><rect
         fill="#4F5D73"
         height="6"
         width="40"
         x="12"
         y="25"
         id="rect22"
         style="fill:#4f5d73;fill-opacity:1" /></g><g
       id="g28"
       style="fill:#c75c5c;fill-opacity:1"><circle
         cx="38"
         cy="41"
         fill="#E0995E"
         r="2"
         id="circle26"
         style="fill:#c75c5c;fill-opacity:1" /></g><g
       id="g32"
       style="fill:#c75c5c;fill-opacity:1"><circle
         cx="46"
         cy="41"
         fill="#E0995E"
         r="2"
         id="circle30"
         style="fill:#c75c5c;fill-opacity:1" /></g><g
       id="g36"><circle
         cx="30"
         cy="41"
         fill="#E0995E"
         r="2"
         id="circle34"
         style="fill:#c75c5c;fill-opacity:1" /></g></g><g
     id="Layer_2" /></svg>
