<?xml version="1.0" encoding="UTF-8" standalone="no"?>
<svg
   xmlns:dc="http://purl.org/dc/elements/1.1/"
   xmlns:cc="http://creativecommons.org/ns#"
   xmlns:rdf="http://www.w3.org/1999/02/22-rdf-syntax-ns#"
   xmlns:svg="http://www.w3.org/2000/svg"
   xmlns="http://www.w3.org/2000/svg"
   xmlns:sodipodi="http://sodipodi.sourceforge.net/DTD/sodipodi-0.dtd"
   xmlns:inkscape="http://www.inkscape.org/namespaces/inkscape"
   enable-background="new 0 0 64 64"
   height="64px"
   version="1.1"
   viewBox="0 0 64 64"
   width="64px"
   xml:space="preserve"
   id="svg936"
   sodipodi:docname="if_graduation.svg"
   inkscape:version="1.0.1 (3bc2e813f5, 2020-09-07)"><metadata
     id="metadata942"><rdf:RDF><cc:Work
         rdf:about=""><dc:format>image/svg+xml</dc:format><dc:type
           rdf:resource="http://purl.org/dc/dcmitype/StillImage" /><dc:title></dc:title></cc:Work></rdf:RDF></metadata><defs
     id="defs940" /><sodipodi:namedview
     pagecolor="#ffffff"
     bordercolor="#666666"
     borderopacity="1"
     objecttolerance="10"
     gridtolerance="10"
     guidetolerance="10"
     inkscape:pageopacity="0"
     inkscape:pageshadow="2"
     inkscape:window-width="2560"
     inkscape:window-height="1377"
     id="namedview938"
     showgrid="false"
     inkscape:zoom="18.546875"
     inkscape:cx="32.628408"
     inkscape:cy="32"
     inkscape:window-x="1672"
     inkscape:window-y="-8"
     inkscape:window-maximized="1"
     inkscape:current-layer="svg936" /><g
     id="g914"><circle
       cx="32"
       cy="32"
       fill="#e0e0d1"
       r="32"
       id="circle912" /></g><g
     id="Layer_2" /><path
     class="cls-1"
     d="M 16.521095,27.623909 V 39.62999 a 2.9841131,2.9841131 0 0 0 0.994704,2.238085 22.51016,22.51016 0 0 0 29.841131,0 2.9841131,2.9841131 0 0 0 0.994705,-2.238085 V 27.623909 Z"
     id="path1085"
     style="fill:#333333;stroke-width:0.497352" /><path
     class="cls-2"
     d="M 17.555588,29.991305 H 48.351635 V 27.623909 H 16.521095 V 39.62999 a 2.9841131,2.9841131 0 0 0 1.034493,2.262953 z"
     id="path1087"
     style="fill:#4d4d4d;stroke-width:0.497352" /><path
     class="cls-3"
     d="m 16.521095,27.623909 v 3.720194 l 17.606267,8.79816 a 2.0988262,2.0988262 0 0 0 1.875018,0 l 9.116466,-4.560719 a 1.2781951,1.2781951 0 0 1 1.850149,1.14391 v 2.899563 A 2.9841131,2.9841131 0 0 1 45.974292,41.858128 22.420637,22.420637 0 0 1 31.745045,47.517996 22.440531,22.440531 0 0 0 47.35693,41.853154 2.9841131,2.9841131 0 0 0 48.351635,39.62999 V 27.623909 Z"
     id="path1089"
     style="fill:#1f1f1f;stroke-width:0.497352" /><path
     class="cls-2"
     d="M 31.496369,15.911264 9.1453619,27.096716 a 1.0494132,1.0494132 0 0 0 0,1.875017 l 22.3510071,11.17053 a 2.0988262,2.0988262 0 0 0 1.875018,0 L 55.727368,28.96676 a 1.0494132,1.0494132 0 0 0 0,-1.875018 L 33.37636,15.911264 a 2.0988262,2.0988262 0 0 0 -1.879991,0 z"
     id="path1091"
     style="fill:#4d4d4d;stroke-width:0.497352" /><path
     class="cls-4"
     d="m 10.821439,29.001574 a 1.0842278,1.0842278 0 0 1 0,-1.939673 c 0,0 21.222018,-11.439101 20.679904,-11.150637 L 9.1453619,27.096716 a 1.0494132,1.0494132 0 0 0 0,1.875017 l 22.3510071,11.17053 c 0.542114,0.273544 -20.67493,-11.140689 -20.67493,-11.140689 z"
     id="path1093"
     style="fill:#666666;stroke-width:0.497352" /><path
     class="cls-1"
     d="m 54.051291,29.001574 a 1.0842278,1.0842278 0 0 0 0,-1.939673 c 0,0 -21.222017,-11.439101 -20.679904,-11.150637 l 22.355981,11.180478 a 1.0494132,1.0494132 0 0 1 0,1.875018 L 33.37636,40.142263 C 32.834246,40.415807 54.051291,29.001574 54.051291,29.001574 Z"
     id="path1095"
     style="fill:#333333;stroke-width:0.497352" /><path
     class="cls-3"
     d="m 20.848059,44.305101 q 0.427723,0.258623 0.865392,0.497352 v -9.534241 l -0.865392,-0.333227 z"
     id="path1097"
     style="fill:#1f1f1f;stroke-width:0.497352" /><path
     class="cls-3"
     d="m 20.350706,41.171782 a 1.9894088,1.9894088 0 0 0 -1.909831,1.462216 22.380849,22.380849 0 0 0 3.133318,2.088879 1.9894088,1.9894088 0 0 0 -1.223487,-3.551095 z"
     id="path1099"
     style="fill:#1f1f1f;stroke-width:0.497352" /><path
     class="cls-5"
     d="M 18.85865,47.517996 V 34.323242 a 0.9947044,0.9947044 0 0 1 0.552061,-0.89026 l 12.583011,-6.306426 a 0.99534183,0.99534183 0 0 1 0.89026,1.780522 l -12.035923,6.027907 v 12.583011 a 0.99470459,0.99470459 0 0 1 -1.989409,0 z"
     id="path1101"
     style="fill:#ffc219;stroke-width:0.497352" /><path
     class="cls-6"
     d="m 31.993722,27.126556 -12.587984,6.306426 a 0.9947044,0.9947044 0 0 0 -0.552062,0.89026 v 13.194754 l 0.358095,-13.214647 a 0.57195502,0.57195502 0 0 1 0.303385,-0.497353 z"
     id="path1103"
     style="fill:#ffce47;stroke-width:0.497352" /><path
     class="cls-7"
     d="m 32.963558,27.186239 a 0.9947044,0.9947044 0 0 1 -0.363066,1.462215 l -11.871798,5.968227 a 0.49735219,0.49735219 0 0 0 -0.278517,0.45259 l 0.114392,12.175182 a 0.9947044,0.9947044 0 0 1 -1.521898,0.840525 0.9947044,0.9947044 0 0 0 1.805388,-0.626664 V 34.934985 L 32.829274,28.96676 a 0.9947044,0.9947044 0 0 0 0.134284,-1.780521 z"
     id="path1105"
     style="fill:#f47c27;stroke-width:0.497352" /><path
     class="cls-7"
     d="m 18.85865,44.379704 a 1.9496206,1.9496206 0 0 0 1.989409,0.318306 v -3.690354 a 1.9496206,1.9496206 0 0 0 -1.989409,0.318305 z"
     id="path1107"
     style="fill:#f47c27;stroke-width:0.497352" /><circle
     class="cls-6"
     cx="19.853354"
     cy="42.663837"
     r="1.9894087"
     id="circle1109"
     style="fill:#ffce47;stroke-width:0.497352" /><path
     class="cls-8"
     d="m 21.196205,41.206597 c 1.720839,1.860097 -0.949942,4.515958 -2.805066,2.805066 a 1.9894088,1.9894088 0 1 0 2.805066,-2.805066 z"
     id="path1111"
     style="fill:#f69652;stroke-width:0.497352" /><path
     class="cls-9"
     d="m 21.305623,41.316015 a 1.9894088,1.9894088 0 1 0 -2.795119,2.800092 c -1.735759,-1.855124 0.935021,-4.555746 2.795119,-2.800092 z"
     id="path1113"
     style="fill:#ffda75;stroke-width:0.497352" /><polygon
     class="cls-1"
     points="40.7,70.7 64.89,58.6 42.43,71.37 "
     id="polygon1115"
     style="fill:#333333"
     transform="matrix(0.49735219,0,0,0.49735219,0.60582436,-0.22781398)" /></svg>
