<?xml version="1.0" encoding="UTF-8" standalone="no"?>
<svg
   xmlns:dc="http://purl.org/dc/elements/1.1/"
   xmlns:cc="http://creativecommons.org/ns#"
   xmlns:rdf="http://www.w3.org/1999/02/22-rdf-syntax-ns#"
   xmlns:svg="http://www.w3.org/2000/svg"
   xmlns="http://www.w3.org/2000/svg"
   xmlns:sodipodi="http://sodipodi.sourceforge.net/DTD/sodipodi-0.dtd"
   xmlns:inkscape="http://www.inkscape.org/namespaces/inkscape"
   style="enable-background:new 0 0 499.997 500.002;"
   version="1.1"
   viewBox="0 0 499.997 500.002"
   xml:space="preserve"
   id="svg1576"
   sodipodi:docname="if_speech.svg"
   inkscape:version="1.0.1 (3bc2e813f5, 2020-09-07)"><metadata
     id="metadata1582"><rdf:RDF><cc:Work
         rdf:about=""><dc:format>image/svg+xml</dc:format><dc:type
           rdf:resource="http://purl.org/dc/dcmitype/StillImage" /></cc:Work></rdf:RDF></metadata><defs
     id="defs1580" /><sodipodi:namedview
     pagecolor="#ffffff"
     bordercolor="#666666"
     borderopacity="1"
     objecttolerance="10"
     gridtolerance="10"
     guidetolerance="10"
     inkscape:pageopacity="0"
     inkscape:pageshadow="2"
     inkscape:window-width="1680"
     inkscape:window-height="987"
     id="namedview1578"
     showgrid="false"
     inkscape:zoom="2.0159919"
     inkscape:cx="154.51201"
     inkscape:cy="250.00101"
     inkscape:window-x="-8"
     inkscape:window-y="-8"
     inkscape:window-maximized="1"
     inkscape:current-layer="g1572" /><g
     id="g1572"><path
       d="M 250.001,0 C 111.93,0 0,111.94 0,249.997 c 0,138.076 111.93,250.005 250.001,250.005 138.066,0 249.996,-111.93 249.996,-250.005 C 499.997,111.94 388.067,0 250.001,0 Z"
       style="fill:#e0e0d1;fill-opacity:1"
       id="path1551" /><path
       d="m 160.463,236.991 h 66.031 c 21.883,0 39.622,17.74 39.622,39.627 v 16.513 c 0,21.882 -17.74,39.622 -39.622,39.622 h -38.841 l -26.467,26.142 c -5.064,5.016 -9.212,3.269 -9.212,-3.856 v -23.207 c -17.807,-3.895 -31.148,-19.734 -31.148,-38.7 v -16.513 c 0,-21.888 17.745,-39.628 39.637,-39.628 z"
       style="fill:#c75c5c;fill-opacity:1"
       id="path1553" /><path
       d="M 319.515,138.232 H 234.45 c -32.948,0 -59.662,26.719 -59.662,59.656 v 24.856 c 0,32.943 26.714,59.652 59.662,59.652 h 44.124 l 39.83,39.361 c 7.645,7.553 13.893,4.933 13.893,-5.807 v -34.936 c 26.806,-5.855 46.869,-29.712 46.869,-58.269 v -24.856 c 0,-32.939 -26.714,-59.657 -59.651,-59.657 z"
       style="fill:#ffffff"
       id="path1555" /><g
       id="g1569"
       style="fill:#4f5d73;fill-opacity:1"><g
         id="g1559"
         style="fill:#4f5d73;fill-opacity:1"><path
           d="m 207.614,211.014 c 0,8.077 6.549,14.63 14.621,14.63 8.077,0 14.625,-6.553 14.625,-14.63 0,-8.077 -6.548,-14.62 -14.625,-14.62 -8.072,0 -14.621,6.544 -14.621,14.62 z"
           style="fill:#4f5d73;fill-opacity:1"
           id="path1557" /></g><g
         id="g1563"
         style="fill:#4f5d73;fill-opacity:1"><path
           d="m 259.732,211.014 c 0,8.077 6.544,14.63 14.621,14.63 8.072,0 14.625,-6.553 14.625,-14.63 0,-8.077 -6.553,-14.62 -14.625,-14.62 -8.077,0 -14.621,6.544 -14.621,14.62 z"
           style="fill:#4f5d73;fill-opacity:1"
           id="path1561" /></g><g
         id="g1567"
         style="fill:#4f5d73;fill-opacity:1"><path
           d="m 311.836,211.014 c 0,8.077 6.553,14.63 14.63,14.63 8.076,0 14.616,-6.553 14.616,-14.63 0,-8.077 -6.539,-14.62 -14.616,-14.62 -8.077,0 -14.63,6.544 -14.63,14.62 z"
           style="fill:#4f5d73;fill-opacity:1"
           id="path1565" /></g></g></g><g
     id="Layer_1" /></svg>
